<?xml version="1.0" encoding="UTF-8"?><svg xmlns="http://www.w3.org/2000/svg" xmlns:xlink="http://www.w3.org/1999/xlink" fill-opacity="1" color-rendering="auto" color-interpolation="auto" text-rendering="auto" stroke="black" stroke-linecap="square" width="372" stroke-miterlimit="10" shape-rendering="auto" stroke-opacity="1" fill="black" stroke-dasharray="none" font-weight="normal" stroke-width="1" height="201" font-family="'Dialog'" font-style="normal" stroke-linejoin="miter" font-size="12px" stroke-dashoffset="0" image-rendering="auto">
  <!--Generated by ySVG 2.6-->
  <defs id="genericDefs"/>
  <g>
    <defs id="defs1">
      <clipPath clipPathUnits="userSpaceOnUse" id="clipPath1">
        <path d="M0 0 L372 0 L372 201 L0 201 L0 0 Z"/>
      </clipPath>
      <clipPath clipPathUnits="userSpaceOnUse" id="clipPath2">
        <path d="M-15 -15 L357 -15 L357 186 L-15 186 L-15 -15 Z"/>
      </clipPath>
    </defs>
    <g fill="white" text-rendering="geometricPrecision" shape-rendering="geometricPrecision" transform="translate(15,15)" stroke="white">
      <rect x="-15" width="372" height="201" y="-15" clip-path="url(#clipPath2)" stroke="none"/>
    </g>
    <g fill="silver" text-rendering="geometricPrecision" shape-rendering="geometricPrecision" transform="matrix(1,0,0,1,15,15)" stroke="silver">
      <rect x="125.5" width="98" height="30" y="0" clip-path="url(#clipPath2)" stroke="none"/>
    </g>
    <g text-rendering="geometricPrecision" stroke-miterlimit="1.45" shape-rendering="geometricPrecision" transform="matrix(1,0,0,1,15,15)" stroke-linecap="butt">
      <rect fill="none" x="125.5" width="98" height="30" y="0" clip-path="url(#clipPath2)"/>
      <text x="153.4912" xml:space="preserve" y="19.7139" clip-path="url(#clipPath2)" font-family="sans-serif" stroke="none">main.py</text>
    </g>
    <g fill="silver" text-rendering="geometricPrecision" shape-rendering="geometricPrecision" transform="matrix(1,0,0,1,15,15)" stroke="silver">
      <rect x="125.5" width="98" height="30" y="70.5" clip-path="url(#clipPath2)" stroke="none"/>
    </g>
    <g text-rendering="geometricPrecision" stroke-miterlimit="1.45" shape-rendering="geometricPrecision" transform="matrix(1,0,0,1,15,15)" stroke-linecap="butt">
      <rect fill="none" x="125.5" width="98" height="30" y="70.5" clip-path="url(#clipPath2)"/>
      <text x="152.8262" xml:space="preserve" y="90.2139" clip-path="url(#clipPath2)" font-family="sans-serif" stroke="none">utility.py</text>
    </g>
    <g fill="silver" text-rendering="geometricPrecision" shape-rendering="geometricPrecision" transform="matrix(1,0,0,1,15,15)" stroke="silver">
      <rect x="7.5" width="98" height="30" y="70.5" clip-path="url(#clipPath2)" stroke="none"/>
    </g>
    <g text-rendering="geometricPrecision" stroke-miterlimit="1.45" shape-rendering="geometricPrecision" transform="matrix(1,0,0,1,15,15)" stroke-linecap="butt">
      <rect fill="none" x="7.5" width="98" height="30" y="70.5" clip-path="url(#clipPath2)"/>
      <text x="28.8174" xml:space="preserve" y="90.2139" clip-path="url(#clipPath2)" font-family="sans-serif" stroke="none">training.py</text>
    </g>
    <g fill="silver" text-rendering="geometricPrecision" shape-rendering="geometricPrecision" transform="matrix(1,0,0,1,15,15)" stroke="silver">
      <rect x="243.5" width="98" height="30" y="70.5" clip-path="url(#clipPath2)" stroke="none"/>
    </g>
    <g text-rendering="geometricPrecision" stroke-miterlimit="1.45" shape-rendering="geometricPrecision" transform="matrix(1,0,0,1,15,15)" stroke-linecap="butt">
      <rect fill="none" x="243.5" width="98" height="30" y="70.5" clip-path="url(#clipPath2)"/>
      <text x="255.1523" xml:space="preserve" y="90.2139" clip-path="url(#clipPath2)" font-family="sans-serif" stroke="none">commands.py</text>
    </g>
    <g fill="silver" text-rendering="geometricPrecision" shape-rendering="geometricPrecision" transform="matrix(1,0,0,1,15,15)" stroke="silver">
      <rect x="243.5" width="98" height="30" y="141" clip-path="url(#clipPath2)" stroke="none"/>
    </g>
    <g text-rendering="geometricPrecision" stroke-miterlimit="1.45" shape-rendering="geometricPrecision" transform="matrix(1,0,0,1,15,15)" stroke-linecap="butt">
      <rect fill="none" x="243.5" width="98" height="30" y="141" clip-path="url(#clipPath2)"/>
      <text x="249.4775" xml:space="preserve" y="160.7139" clip-path="url(#clipPath2)" font-family="sans-serif" stroke="none">modelBuilder.py</text>
    </g>
    <g fill="silver" text-rendering="geometricPrecision" shape-rendering="geometricPrecision" transform="matrix(1,0,0,1,15,15)" stroke="silver">
      <rect x="0" width="113" height="30" y="141" clip-path="url(#clipPath2)" stroke="none"/>
    </g>
    <g text-rendering="geometricPrecision" stroke-miterlimit="1.45" shape-rendering="geometricPrecision" transform="matrix(1,0,0,1,15,15)" stroke-linecap="butt">
      <rect fill="none" x="0" width="113" height="30" y="141" clip-path="url(#clipPath2)"/>
      <text x="6.1475" xml:space="preserve" y="160.7139" clip-path="url(#clipPath2)" font-family="sans-serif" stroke="none">createDiagrams.py</text>
      <path fill="none" d="M174.5 30 L174.5 62.5" clip-path="url(#clipPath2)"/>
      <path d="M174.5 70.5 L179.5 58.5 L174.5 61.5 L169.5 58.5 Z" clip-path="url(#clipPath2)" stroke="none"/>
      <path fill="none" d="M174.5 30 L174.5 50.5 L56.5 50.5 L56.5 62.5" clip-path="url(#clipPath2)"/>
      <path d="M56.5 70.5 L61.5 58.5 L56.5 61.5 L51.5 58.5 Z" clip-path="url(#clipPath2)" stroke="none"/>
      <path fill="none" d="M105.5 85.5 L117.5 85.5" clip-path="url(#clipPath2)"/>
      <path d="M125.5 85.5 L113.5 80.5 L116.5 85.5 L113.5 90.5 Z" clip-path="url(#clipPath2)" stroke="none"/>
      <path fill="none" d="M174.5 30 L174.5 50.5 L292.5 50.5 L292.5 62.5" clip-path="url(#clipPath2)"/>
      <path d="M292.5 70.5 L297.5 58.5 L292.5 61.5 L287.5 58.5 Z" clip-path="url(#clipPath2)" stroke="none"/>
      <path fill="none" d="M243.5 85.5 L231.5 85.5" clip-path="url(#clipPath2)"/>
      <path d="M223.5 85.5 L235.5 90.5 L232.5 85.5 L235.5 80.5 Z" clip-path="url(#clipPath2)" stroke="none"/>
      <path fill="none" d="M292.5 100.5 L292.5 133" clip-path="url(#clipPath2)"/>
      <path d="M292.5 141 L297.5 129 L292.5 132 L287.5 129 Z" clip-path="url(#clipPath2)" stroke="none"/>
      <path fill="none" d="M243.5 100.1377 L114.3781 138.7102" clip-path="url(#clipPath2)"/>
      <path d="M106.7128 141 L119.6419 142.356 L115.3362 138.4239 L116.7795 132.7744 Z" clip-path="url(#clipPath2)" stroke="none"/>
      <path fill="none" d="M56.5 100.5 L56.5 133" clip-path="url(#clipPath2)"/>
      <path d="M56.5 141 L61.5 129 L56.5 132 L51.5 129 Z" clip-path="url(#clipPath2)" stroke="none"/>
    </g>
  </g>
</svg>
